<svg width="70" height="15" viewBox="0 0 70 15" fill="none" xmlns="http://www.w3.org/2000/svg">
<path fill-rule="evenodd" clip-rule="evenodd" d="M34.265 1.53684C34.755 1.77862 35.385 1.32961 35.28 2.88389L35.14 5.09443C35.14 5.57798 35.07 5.75068 35.07 6.16516C35.07 6.47602 35.035 6.99411 34.965 7.30497C34.86 8.23754 34.965 8.51386 33.915 8.61748V8.89379C34.16 9.03195 36.015 8.96287 36.435 8.96287C36.68 8.96287 36.47 8.96287 36.645 8.89379C36.61 8.51386 36.47 8.61748 36.085 8.5484C35.735 8.47932 35.665 8.44478 35.63 8.13392C35.49 7.44313 35.735 3.88554 35.735 2.95297C35.945 3.16021 36.015 3.40199 36.12 3.6783C36.26 3.95462 36.33 4.12732 36.47 4.40364C36.61 4.67995 36.68 4.88719 36.785 5.16351C36.96 5.43983 37.03 5.61252 37.17 5.92338C37.555 6.82141 38.36 8.13392 38.57 9.03195C38.99 8.99741 38.815 9.03195 39.095 8.41024C39.55 7.44313 39.83 6.99411 40.25 6.13062L41.755 3.12567C41.825 2.98751 41.79 3.09113 41.825 3.02205C41.825 3.71284 41.895 4.12732 41.895 4.81811C41.895 5.54345 42.035 7.92668 41.755 8.47932C41.545 8.51386 41.195 8.61748 40.95 8.61748V8.96287H43.75C43.995 8.96287 43.96 8.82471 43.96 8.61748C43.75 8.61748 43.54 8.58294 43.365 8.51386C42.84 8.3757 42.945 7.58129 42.945 6.71779C42.945 6.16516 42.875 5.8543 42.875 5.37075V2.1931C42.875 1.8477 43.05 1.675 43.365 1.64046C43.89 1.53684 44.03 1.74408 43.89 1.19145C43.505 1.26053 42.245 1.36415 41.895 1.19145C41.86 1.675 41.545 2.3658 41.335 2.78027C41.09 3.29837 40.845 3.74738 40.6 4.26548L38.955 7.27043C38.745 6.3724 36.295 2.60757 36.295 1.19145C35.945 1.36415 34.685 1.26053 34.3 1.19145C34.265 1.32961 34.265 1.32961 34.265 1.53684ZM65.205 2.26218C65.205 5.71614 70 5.33621 70 2.60757C70 1.77862 70 1.29507 69.23 0.604272C68.46 -0.0865209 67.13 -0.22468 66.255 0.397034C65.66 0.84605 65.205 1.46776 65.205 2.26218ZM49.14 4.57633V4.81811C49.455 4.92173 49.63 5.16351 49.63 5.57798C49.63 5.99246 49.7 8.06484 49.525 8.3757C49.42 8.58294 49.105 8.58294 48.895 8.61748V8.96287H51.065C51.31 8.96287 51.1 8.96287 51.275 8.89379C51.24 8.51386 50.995 8.5484 50.645 8.47932C50.505 7.8576 50.575 6.30332 50.575 5.57798C50.575 4.78357 51.975 4.43818 52.57 5.19805C52.885 5.61252 52.815 7.82306 52.71 8.27208C52.64 8.47932 52.57 8.58294 52.01 8.61748V8.89379C52.29 9.03195 54.005 8.96287 54.425 8.96287V8.61748C53.445 8.51386 53.655 8.16846 53.655 6.16516C53.655 5.16351 53.725 4.16186 52.22 4.16186C51.765 4.16186 51.31 4.33456 50.96 4.54179C50.785 4.64541 50.785 4.64541 50.575 4.67995V4.0237C50.12 4.0237 49.63 4.43818 49.14 4.57633ZM1.365 1.60592C1.855 1.81316 2.38 1.53684 2.38 2.26218L2.45 5.23259H3.43V2.05494C3.43 1.57138 3.675 1.675 4.165 1.675C6.055 1.675 6.44 4.1964 5.075 5.05989C3.955 5.75068 1.225 5.30167 0 5.30167L0.28 5.40529C2.345 5.88884 7.035 6.3724 7.035 3.40199C7.035 2.22764 6.195 1.5023 5.005 1.29507C3.92 1.08783 3.115 1.26053 2.1 1.26053C1.68 1.26053 1.4 1.19145 1.365 1.60592ZM15.505 4.30002C15.365 4.33456 15.155 4.43818 15.015 4.50726C14.805 4.64541 14.84 4.64541 14.91 4.88719C15.82 4.88719 15.505 4.81811 15.505 5.30167C15.505 5.64706 15.61 8.30662 15.435 8.47932C15.085 8.65202 14.805 8.44478 14.77 8.89379C15.05 8.99741 16.345 8.92833 16.905 8.96287C17.36 8.96287 17.29 9.03195 17.43 8.75563C17.08 8.27208 16.485 8.99741 16.485 7.78852C16.485 3.6783 16.17 5.26713 18.06 4.81811C18.165 4.40364 18.13 4.71449 18.06 4.30002C16.59 4.30002 16.485 4.47272 16.485 3.88554C16.485 2.95297 16.59 0.707892 17.885 1.22599C18.235 1.36415 18.41 1.81316 18.725 1.81316C19.145 1.81316 19.355 1.46776 19.215 1.12237C18.865 0.362495 16.17 0.155257 15.68 2.88389C15.61 3.26383 15.505 3.92008 15.505 4.30002Z" fill="#F00F0F"/>
<path fill-rule="evenodd" clip-rule="evenodd" d="M46.2696 4.57639C48.1246 4.57639 48.1946 8.68661 46.4796 8.68661C44.9396 8.68661 44.6246 6.30337 45.2196 5.26718C45.3946 4.92178 45.7796 4.57639 46.2696 4.57639ZM43.8896 6.44153V6.92508C43.8896 9.7228 48.8246 9.99911 48.8246 6.57969C48.8246 3.22934 43.8896 3.5402 43.8896 6.44153ZM58.8696 4.64546C59.4296 4.68 59.5696 4.81816 59.7796 5.26718L60.6196 7.5468C61.1096 8.82477 61.1446 8.99746 60.3746 10.31C60.1996 10.5863 60.1646 10.759 59.7446 10.759C59.2546 10.7935 59.1496 10.8281 59.1496 11.3116C59.1496 11.7606 59.4296 11.7952 59.7446 11.7952C60.3746 11.7952 60.6546 10.8626 61.0046 10.1027L62.8946 6.16521C63.2796 5.40534 63.4546 4.68 64.2596 4.64546V4.30007H62.1246V4.64546C62.3696 4.64546 62.6146 4.71454 62.8246 4.74908C62.8246 5.09448 62.4396 5.95797 62.2996 6.26883C62.1596 6.54515 61.7746 7.5468 61.5996 7.65042L61.0746 6.26883C60.9696 5.92343 60.6546 5.09448 60.6196 4.74908C61.3196 4.61093 61.1796 4.64546 61.1796 4.30007H59.0796C58.8346 4.30007 58.8696 4.40369 58.8696 4.64546ZM19.4246 5.57804C18.2346 5.57804 19.7046 4.57639 20.2296 4.57639C20.7896 4.57639 21.0696 4.8527 21.0696 5.30172C21.0696 5.61258 20.6496 5.47442 20.3346 5.50896C20.0546 5.5435 19.7746 5.57804 19.4246 5.57804ZM17.9896 6.64877C17.9896 9.34286 20.4396 9.41194 21.4196 8.72115C21.7346 8.51391 22.0846 8.16851 22.0146 7.78858C21.2446 7.82311 21.9096 8.34121 20.5096 8.34121C19.3546 8.34121 18.6546 6.89054 18.8646 5.99251C19.8096 5.99251 21.2096 6.09613 22.0146 5.92343C22.0146 5.23264 22.0146 5.0254 21.6646 4.64546C20.8946 3.85105 19.3196 4.09283 18.6196 4.92178C18.2696 5.33626 17.9896 5.92343 17.9896 6.64877ZM55.9996 5.57804H55.5796C55.5796 5.1981 55.7546 5.05994 55.9646 4.88724C56.5596 4.40369 57.6446 4.40369 57.6446 5.30172C57.6446 5.61258 57.2246 5.47442 56.9096 5.50896C56.6296 5.5435 56.3496 5.57804 55.9996 5.57804ZM54.5646 6.64877C54.5646 7.47772 54.7046 8.09943 55.2996 8.61753C56.0696 9.23924 57.3296 9.2047 58.0646 8.68661C58.1346 8.61753 59.0446 7.78858 58.4496 7.78858C57.9946 7.78858 58.3796 8.34121 57.0846 8.34121C56.0696 8.34121 55.5096 7.30502 55.3696 6.37245C55.2996 5.81981 55.5446 5.99251 56.8046 5.99251C57.3996 5.99251 58.0996 6.02705 58.5896 5.92343C58.5896 5.61258 58.7646 5.23264 58.2746 4.68C57.5046 3.81651 55.8946 4.09283 55.1946 4.92178C54.8446 5.30172 54.5646 5.95797 54.5646 6.64877ZM7.73457 5.57804C7.80457 4.47277 9.83457 4.16191 9.83457 5.23264C9.83457 5.68166 8.18957 5.57804 7.73457 5.57804ZM6.75457 6.44153C6.75457 7.2014 6.71957 7.92673 7.41957 8.54845C8.29457 9.34286 9.93957 9.27378 10.6396 8.30667C10.8846 7.92673 10.8146 7.58134 10.3946 7.96127C9.16957 9.032 7.59457 7.85765 7.59457 6.16521C7.59457 5.85435 8.57457 5.99251 9.23957 5.99251C10.6396 5.99251 10.8146 6.13067 10.8146 5.50896C10.8146 4.68 10.0096 4.16191 9.02957 4.16191C7.80457 4.16191 6.75457 5.26718 6.75457 6.44153ZM22.3646 6.51061V6.99416C22.3646 8.92838 24.6046 9.5501 25.8996 8.72115C26.1096 8.58299 26.5996 8.16851 26.5996 7.85765C26.5996 7.61588 26.5996 7.85765 26.5296 7.65042C26.1446 7.68496 26.3196 7.78858 26.0046 8.03035C25.0946 8.75569 23.2396 8.27213 23.2396 6.30337C23.2396 5.40534 23.8696 4.64546 24.8146 4.64546C25.6196 4.64546 25.8296 5.30172 26.1096 5.30172C26.3546 5.30172 26.5646 4.92178 26.3546 4.50731C26.1796 4.12737 25.4446 4.16191 25.0246 4.16191C24.2196 4.16191 23.5896 4.43823 23.1696 4.81816C22.7496 5.16356 22.3646 5.81981 22.3646 6.51061ZM26.8796 4.81816C27.0546 4.92178 27.1596 4.88724 27.4746 4.88724V7.65042C27.4746 9.93003 29.9946 8.96292 29.9946 8.47937C29.9946 8.13397 29.7496 8.34121 29.6096 8.41029C29.3996 8.51391 29.2946 8.54845 28.9796 8.47937C28.5946 8.34121 28.4196 7.92673 28.4196 7.40864V4.88724C30.0646 4.88724 30.1696 5.05994 29.9946 4.30007C28.3496 4.30007 28.4546 4.43823 28.4196 3.88559C28.4196 3.64381 28.4196 3.43658 28.2096 3.50566C27.9646 3.60927 27.9996 4.16191 27.1596 4.47277C26.8446 4.57639 26.8796 4.47277 26.8796 4.81816ZM11.2696 4.68C11.2696 5.0254 11.6896 4.88724 11.6896 5.23264C11.6896 6.02705 11.7596 7.82311 11.6196 8.47937C11.4096 8.51391 11.2346 8.58299 10.9896 8.61753V8.96292H13.4046C13.6146 8.96292 13.5796 8.82477 13.6146 8.61753C13.4746 8.61753 13.0546 8.54845 12.9496 8.51391C12.7396 8.47937 12.6346 8.34121 12.6346 8.06489V5.78527C12.6346 5.43988 12.8096 4.95632 13.1946 4.95632C13.4746 4.95632 13.7896 5.23264 13.8596 5.23264C14.9446 5.23264 14.5946 3.50566 13.1596 4.40369C12.9846 4.54185 12.8796 4.71454 12.6346 4.74908V4.02375C12.2846 4.02375 11.9696 4.26553 11.5496 4.43823C11.3746 4.50731 11.2696 4.47277 11.2696 4.68ZM1.43457 8.61753V8.96292H4.58457V8.61753C3.21957 8.58299 3.42957 8.09943 3.42957 6.06159C2.86957 6.06159 2.93957 6.09613 2.44957 5.99251C2.44957 6.64877 2.37957 7.16686 2.37957 7.7195C2.37957 8.51391 2.13457 8.54845 1.43457 8.61753Z" fill="#F00F0F"/>
<path fill-rule="evenodd" clip-rule="evenodd" d="M44.1703 12.4514C44.1703 11.6915 45.0453 11.6915 45.0453 12.4514C45.0453 13.1421 44.1703 13.2458 44.1703 12.4514ZM43.6103 14.2129H44.1703V13.2803C45.7103 14.282 46.1303 11.4497 44.8353 11.4497C44.1703 11.4497 44.4853 11.5533 44.1003 11.6569V11.4497H43.6103V14.2129ZM47.0403 11.8642H47.1103C47.3203 11.8642 47.3553 12.0369 47.4253 12.175H46.6903C46.7253 12.0023 46.8303 11.8642 47.0403 11.8642ZM46.1303 12.2441C46.1303 12.7967 46.1303 13.453 47.1803 13.453C47.4253 13.453 47.6703 13.4185 47.8453 13.3494L47.7753 12.9349C47.3553 13.0385 46.7253 13.1767 46.6903 12.5895H47.9153C47.9153 11.8296 47.8803 11.4497 46.9703 11.4497C46.5503 11.4497 46.1303 11.8642 46.1303 12.2441ZM36.2953 12.6586C36.2953 13.9366 37.4853 13.3148 37.5553 13.3148L38.0803 13.3839V11.4497H37.5203C37.5203 12.106 37.6953 13.004 37.2053 13.004C36.7153 13.004 36.8553 12.0023 36.8553 11.4497H36.2953V12.6586ZM52.7103 11.8642H52.7803C52.9903 11.8642 53.0603 12.0023 53.1303 12.175H52.3603C52.3953 12.0023 52.5003 11.8642 52.7103 11.8642ZM51.8353 12.3823C51.8353 13.9366 53.5153 13.453 53.5153 13.2803C53.5153 12.7967 53.3403 13.004 52.9553 13.0385C52.6403 13.0385 52.3953 12.9349 52.3603 12.5895H53.6553C53.6553 10.8971 51.8353 11.2425 51.8353 12.3823ZM50.4353 11.4497H50.1903V11.9333H50.4353V13.3839H50.9953V11.9333H51.4153V11.4497H50.9953L51.0653 11.1043C51.2403 11.0007 51.2403 11.0352 51.5553 11.0352V10.5517C51.0653 10.5517 50.4703 10.5171 50.4353 11.4497ZM40.8803 11.1043V11.4497H40.6003V11.9333H40.8803C40.8803 13.1421 40.7753 13.453 41.6853 13.453C41.9653 13.453 41.8953 13.3148 41.8953 13.004C41.3353 13.004 41.4403 12.9349 41.4403 11.9333H41.8953V11.4497H41.4403V10.9662C41.1953 11.0352 41.1253 11.0698 40.8803 11.1043ZM56.4553 11.1043V11.4497H56.2103V11.9333H56.4553C56.4553 13.004 56.3503 13.453 57.2953 13.453C57.5403 13.453 57.5053 13.3148 57.5053 13.004C56.9453 13.004 57.2603 13.0385 57.0853 12.9349C56.9803 12.4514 57.0153 12.4859 57.0153 11.9333H57.5053V11.4497H57.0153V10.9662C56.8053 11.0352 56.7003 11.0698 56.4553 11.1043ZM38.8153 11.9678C38.8153 12.7622 39.3403 12.4514 39.6553 12.8658C39.4103 13.2112 39.4103 13.0731 38.8153 12.9349C38.7803 13.1421 38.5353 13.453 39.3753 13.453C40.2503 13.453 40.4253 12.6586 39.8653 12.3132C39.7253 12.2441 39.4803 12.2096 39.4103 12.106C39.2353 11.9333 39.4103 11.8642 39.6203 11.8642C39.8303 11.8642 39.7253 11.8987 40.0053 11.9333C40.0753 11.7606 40.0403 11.6569 40.1103 11.5188C39.8303 11.4842 38.8153 11.2079 38.8153 11.9678ZM54.1453 12.4514C54.1453 13.1076 54.5653 13.453 55.2303 13.453C55.4753 13.453 55.5103 13.4185 55.7203 13.3839V12.9349C54.2503 13.2803 54.6353 11.8642 55.3003 11.8642C55.4753 11.8642 55.3703 11.8987 55.6503 11.9333C55.8953 11.3806 55.6853 11.4497 55.0203 11.4497C54.5303 11.4497 54.1453 11.9333 54.1453 12.4514ZM35.0003 12.5204C35.0003 13.1767 34.4753 12.9694 34.2653 12.9349C34.2653 13.2112 34.2303 13.2112 34.1953 13.3839C35.8753 13.7984 35.5603 12.5204 35.5603 10.7589H35.0003V12.5204ZM48.6153 13.3839H49.1403C49.1403 12.3823 49.0003 12.106 49.5253 11.9678C49.7003 11.8987 49.7003 12.175 49.7003 11.4497C49.3153 11.4497 49.3153 11.4842 49.0703 11.6569V11.4497H48.6153V13.3839Z" fill="white"/>
<path fill-rule="evenodd" clip-rule="evenodd" d="M67.2701 1.64048C67.4451 1.64048 67.4451 1.53687 67.4451 2.0895C67.4451 2.2622 67.4451 2.95299 67.3751 3.05661C67.3401 3.12569 67.2351 3.12569 67.1301 3.12569V3.19477H67.7601V3.12569C67.5151 3.12569 67.5151 3.16023 67.5151 2.64214V1.88226C67.5851 1.98588 67.6551 2.0895 67.6901 2.22766C67.7251 2.2622 67.7601 2.33128 67.7951 2.36582L68.2151 3.19477C68.2501 3.22931 68.2501 3.16023 68.2851 3.12569L68.7401 2.22766C68.7751 2.19312 68.9151 1.9168 68.9151 1.88226V2.91845C68.9151 3.12569 68.8801 3.09115 68.7051 3.12569V3.19477H69.3351V3.12569C69.1251 3.12569 69.1251 3.09115 69.1251 2.88391V1.7441C69.1251 1.60594 69.1951 1.64048 69.3001 1.64048V1.53687H68.9151C68.9151 1.53687 68.9151 1.5714 68.8801 1.5714L68.8451 1.70956C68.8101 1.7441 68.7751 1.81318 68.7401 1.88226C68.7401 1.9168 68.7051 1.98588 68.6701 2.02042C68.6351 2.0895 68.6351 2.15858 68.6001 2.19312C68.5301 2.29674 68.4951 2.4349 68.4251 2.53852C68.4251 2.6076 68.3901 2.64214 68.3551 2.71121C68.3551 2.74575 68.2851 2.84937 68.2851 2.88391L67.6201 1.53687H67.2701V1.64048Z" fill="#FEFDFD"/>
<path fill-rule="evenodd" clip-rule="evenodd" d="M66.1151 1.64048H66.2901C66.3251 1.64048 66.3251 1.70956 66.3251 1.7441V2.36582C66.3601 2.40036 66.5001 2.36582 66.5351 2.36582V1.60594C66.7451 1.60594 66.8501 1.60594 66.9551 1.70956C67.0601 1.77864 67.0951 1.9168 67.0951 2.0895C67.0601 2.22766 66.9901 2.33128 66.8501 2.36582C66.6751 2.46944 66.2201 2.46944 66.0101 2.4349C65.9751 2.40036 65.9051 2.40036 65.8701 2.40036C65.9401 2.4349 66.0801 2.46944 66.1501 2.46944C66.2901 2.50398 66.4301 2.50398 66.5351 2.50398C66.8501 2.50398 67.2001 2.46944 67.3051 2.15858C67.3401 2.05496 67.3401 1.95134 67.3051 1.84772C67.2351 1.67502 67.0601 1.5714 66.8501 1.53687H66.1151V1.64048ZM66.1151 3.12569V3.19477H66.7451V3.12569C66.5001 3.12569 66.5351 3.12569 66.5351 2.74575V2.57306H66.3251V2.91845C66.3251 3.12569 66.2901 3.09115 66.1151 3.12569Z" fill="#FEFDFD"/>
</svg>
